<?xml version="1.0" standalone="no"?>
<!DOCTYPE svg PUBLIC "-//W3C//DTD SVG 20010904//EN"
 "http://www.w3.org/TR/2001/REC-SVG-20010904/DTD/svg10.dtd">
<svg version="1.0" xmlns="http://www.w3.org/2000/svg"
 width="200.000000pt" height="200.000000pt" viewBox="0 0 200.000000 200.000000"
 preserveAspectRatio="xMidYMid meet">
<metadata>
Created by potrace 1.11, written by Peter Selinger 2001-2013
</metadata>
<g transform="translate(0.000000,200.000000) scale(0.100000,-0.100000)"
fill="#000000" stroke="none">
<path d="M117 1980 c-22 -11 -50 -31 -63 -45 -56 -60 -54 -28 -54 -929 0 -547
4 -844 11 -869 13 -48 79 -114 128 -127 25 -6 330 -10 872 -9 910 1 867 -2
928 60 62 61 59 18 60 922 1 566 -2 841 -10 870 -11 47 -46 92 -94 123 -29 18
-58 19 -885 21 -826 2 -856 2 -893 -17z"/>
</g>
</svg>
