<?xml version="1.0"?>
<svg width="1000" height="600" xmlns="http://www.w3.org/2000/svg" xmlns:svg="http://www.w3.org/2000/svg">
 <!-- Created with SVG-edit - https://github.com/SVG-Edit/svgedit-->
 <defs>
  <linearGradient id="svg_45" x1="0" x2="0.2" y1="0" y2="1">
   <stop offset="0" stop-color="#2b3052" stop-opacity="0.992188"/>
   <stop offset="0.237" stop-color="#353b63" stop-opacity="0.996094"/>
   <stop offset="1" stop-color="#2b3052" stop-opacity="0.992188"/>
  </linearGradient>
 </defs>
 <g class="layer">
  <title>Layer 1</title>
  <path d="m-67.5,624.755265c20,0.614309 58,-76.174306 98,-76.174306c40,0 43,36.244226 76,36.244226c33,0 41,-96.446501 82,-97.675119c41,-1.228618 33,25.186666 64,27.029593c31,1.842927 37,-88.460485 141,-89.689103c104,-1.228618 78,73.102762 155,71.874144c77,-1.228618 100,-38.701462 177,-40.544389c77,-1.842927 70,56.516421 104,57.13073c34,0.614309 20,-22.115121 77,-23.343739c57,-1.228618 78,46.073169 118,47.916096c40,1.842927 79,55.902112 78.5,55.594958c-0.5,-0.307154 -63.5,71.56699 -64,71.259835c-0.5,-0.307154 -42.5,28.565365 -43,28.25821c-0.5,-0.307154 -244.5,14.43626 -246.5,14.43626c-2,0 -449,1.842927 -455,2.457236c-6,0.614309 -191,-4.914471 -191.5,-5.221626c-0.5,-0.307154 -119.5,-5.835935 -120,-6.143089c-0.5,-0.307154 -35.5,-9.521788 -36.5,-9.521788c-1,0 -14,-63.888128 -14,-63.888128z" fill="url(#svg_45)" id="svg_6" stroke="#ff6858" stroke-dasharray="null" stroke-linecap="round" stroke-linejoin="null" stroke-width="0"/>
  <ellipse cx="99.5" cy="506.5" fill="#353b63" id="svg_8" rx="17" ry="17" stroke="#ff6858" stroke-dasharray="null" stroke-linecap="round" stroke-linejoin="null" stroke-width="0"/>
  <ellipse cx="89.5" cy="438.5" fill="#353b63" id="svg_9" rx="15" ry="15" stroke="#ff6858" stroke-dasharray="null" stroke-linecap="round" stroke-linejoin="null" stroke-width="0"/>
  <ellipse cx="565.5" cy="462.5" fill="#353b63" id="svg_11" rx="17" ry="17" stroke="#ff6858" stroke-dasharray="null" stroke-linecap="round" stroke-linejoin="null" stroke-width="0"/>
  <ellipse cx="571" cy="361" fill="#353b63" id="svg_12" rx="13.5" ry="13.5" stroke="#ff6858" stroke-dasharray="null" stroke-linecap="round" stroke-linejoin="null" stroke-width="0"/>
  <ellipse cx="267.5" cy="405.5" fill="#353b63" id="svg_13" rx="16" ry="16" stroke="#ff6858" stroke-dasharray="null" stroke-linecap="round" stroke-linejoin="null" stroke-width="0"/>
  <ellipse cx="824.5" cy="388.5" fill="#353b63" id="svg_15" rx="5" ry="5" stroke="#ff6858" stroke-dasharray="null" stroke-linecap="round" stroke-linejoin="null" stroke-width="0"/>
  <ellipse cx="866.5" cy="450.5" fill="#353b63" id="svg_16" rx="17" ry="17" stroke="#ff6858" stroke-dasharray="null" stroke-linecap="round" stroke-linejoin="null" stroke-width="0"/>
  <ellipse cx="652.5" cy="257.5" fill="#353b63" id="svg_17" rx="6" ry="6" stroke="#ff6858" stroke-dasharray="null" stroke-linecap="round" stroke-linejoin="null" stroke-width="0"/>
  <ellipse cx="737.5" cy="403.5" fill="#353b63" id="svg_18" rx="13" ry="13" stroke="#ff6858" stroke-dasharray="null" stroke-linecap="round" stroke-linejoin="null" stroke-width="0"/>
  <ellipse cx="632" cy="422" fill="#353b63" id="svg_19" rx="16.5" ry="16.5" stroke="#ff6858" stroke-dasharray="null" stroke-linecap="round" stroke-linejoin="null" stroke-width="0"/>
  <ellipse cx="325.5" cy="326.5" fill="#353b63" id="svg_20" rx="10" ry="10" stroke="#ff6858" stroke-dasharray="null" stroke-linecap="round" stroke-linejoin="null" stroke-width="0"/>
  <ellipse cx="866.5" cy="359.5" fill="#353b63" id="svg_25" rx="6" ry="6" stroke="#ff6858" stroke-dasharray="null" stroke-linecap="round" stroke-linejoin="null" stroke-width="0"/>
  <ellipse cx="446.5" cy="275.5" fill="#353b63" id="svg_27" rx="7" ry="7" stroke="#ff6858" stroke-dasharray="null" stroke-linecap="round" stroke-linejoin="null" stroke-width="0"/>
  <ellipse cx="763.5" cy="325.5" fill="#353b63" id="svg_28" rx="15" ry="15" stroke="#ff6858" stroke-dasharray="null" stroke-linecap="round" stroke-linejoin="null" stroke-width="0"/>
  <ellipse cx="203.5" cy="421.5" fill="#353b63" id="svg_33" rx="10" ry="10" stroke="#ff6858" stroke-dasharray="null" stroke-linecap="round" stroke-linejoin="null" stroke-width="0"/>
  <ellipse cx="487.5" cy="371.5" fill="#353b63" id="svg_36" rx="14" ry="14" stroke="#ff6858" stroke-dasharray="null" stroke-linecap="round" stroke-linejoin="null" stroke-width="0"/>
  <ellipse cx="14.5" cy="503.5" fill="#353b63" id="svg_38" rx="21" ry="21" stroke="#ff6858" stroke-dasharray="null" stroke-linecap="round" stroke-linejoin="null" stroke-width="0"/>
  <ellipse cx="979.5" cy="463.5" fill="#353b63" id="svg_39" rx="14" ry="14" stroke="#ff6858" stroke-dasharray="null" stroke-linecap="round" stroke-linejoin="null" stroke-width="0"/>
  <ellipse cx="935.5" cy="406.5" fill="#353b63" id="svg_40" rx="7" ry="7" stroke="#ff6858" stroke-dasharray="null" stroke-linecap="round" stroke-linejoin="null" stroke-width="0"/>
  <path d="m-156.5,106.5c2.085327,0.585333 2.943344,0.987964 3.520828,1.270833c0.703995,0.344833 1.550598,0.766472 2.560501,1.2705c2.586014,1.290648 4.192017,2.094646 5.996002,2.998668c1.980713,0.992579 4.11554,2.064957 6.380997,3.209999c2.377243,1.201542 4.843018,2.452065 7.371002,3.75c5.175514,2.657253 7.772789,4.020012 10.380005,5.388c2.623123,1.376335 5.264641,2.770653 7.936501,4.1745c2.70546,1.421501 5.450768,2.863213 8.251495,4.309502c5.762039,2.975502 8.753906,4.475681 11.818672,6.010666c3.145531,1.575436 6.385857,3.18428 9.721497,4.8465c3.441711,1.715076 6.998276,3.486515 10.666496,5.341499c7.737686,3.912865 11.802032,6.022179 16.022671,8.208c4.382736,2.269768 8.930752,4.63567 13.665001,7.075497c4.918987,2.535042 10.034435,5.161324 15.374998,7.8405c11.314612,5.676147 17.347086,8.587288 23.596001,11.600006c6.45463,3.1119 13.118938,6.288757 19.966499,9.559494c7.023113,3.354584 14.2148,6.781548 21.541502,10.324501c15.0774,7.290939 22.781021,11.109238 30.647995,15.028c8.085518,4.027626 16.419456,8.222473 25.060501,12.585007c9.000381,4.543945 18.398743,9.309814 28.255501,14.294998c21.261887,10.753479 32.744812,16.53717 44.720001,22.553329c12.352402,6.205658 24.980179,12.531647 37.774506,18.922501c12.84433,6.415833 25.634979,12.791107 38.269501,19.057495c24.325668,12.064865 35.843979,17.727142 46.914658,23.158676c10.664459,5.232224 20.977814,10.268509 30.982513,15.138c9.735352,4.738388 19.253723,9.35466 28.597504,13.878006c18.337463,8.877197 27.416748,13.26062 36.434662,17.619995c8.939758,4.321625 17.782715,8.595886 26.509491,12.814484c8.591888,4.153381 17.029938,8.232452 25.294495,12.229523c15.935181,7.706909 23.569366,11.405182 30.981354,14.986664c7.189728,3.474091 14.1633,6.837677 20.932495,10.0755c6.557587,3.136627 12.912628,6.162933 19.087494,9.040497c11.749573,5.475433 17.372498,7.992523 22.817322,10.410645c5.27002,2.340485 10.391968,4.570251 15.366028,6.715515c4.828674,2.08255 9.531616,4.084778 14.105957,6.040497c8.8125,3.7677 13.063965,5.602814 17.221375,7.414673c4.077271,1.776917 8.075867,3.535919 12.005981,5.273987c3.872559,1.712616 7.691101,3.411743 11.466003,5.094025c7.451538,3.32077 11.143433,4.966492 14.823975,6.613312c3.6828,1.647827 7.376404,3.307953 11.085022,5.001007c3.744751,1.709564 7.530884,3.45462 11.35498,5.270996c7.86908,3.737701 11.894775,5.743591 15.985352,7.793335c4.13855,2.073792 8.287659,4.191589 12.430481,6.331512c4.125183,2.130768 8.200745,4.26059 12.205505,6.376495c7.739258,4.088989 11.41925,6.070251 14.978699,7.984009c3.442139,1.850677 6.767029,3.648621 9.982483,5.389496c3.111206,1.684448 6.120361,3.318665 9.037476,4.894501c5.56427,3.005829 8.227051,4.427765 10.812012,5.807983c2.51239,1.341461 4.958862,2.643829 7.338013,3.922516c2.322144,1.248047 4.591003,2.471436 6.797974,3.697479c4.296448,2.38681 6.369324,3.6008 8.410706,4.804016c2.015869,1.188171 3.997742,2.380585 5.958008,3.561005c1.941101,1.168915 3.861084,2.334412 5.777954,3.470978c3.797058,2.251373 5.702881,3.332153 7.604004,4.402679c1.894531,1.066803 3.791321,2.116272 5.680542,3.167999c1.885437,1.049591 3.769531,2.095093 5.635498,3.167999c3.730469,2.144928 5.567444,3.268982 7.401306,4.399994c1.8349,1.131653 3.658691,2.282684 5.484009,3.432007c1.825317,1.149323 3.64679,2.304169 5.484009,3.432007c3.671082,2.253662 5.53302,3.332733 7.401306,4.397339c1.867432,1.064117 3.747986,2.103577 5.635498,3.128998c1.887146,1.025238 3.78241,2.035126 5.680542,3.039001c3.796021,2.007599 5.698364,3.002411 7.596008,4.001312c1.893677,0.996765 3.781372,1.99057 5.66095,2.980499c1.869751,0.984741 3.727478,1.963409 5.571045,2.935516c3.637634,1.918121 5.428711,2.863831 7.206665,3.803986c1.7724,0.937225 3.545715,1.876526 5.326477,2.822998c1.79657,0.954865 3.615173,1.923737 5.461487,2.912994c3.811096,2.041992 5.782471,3.108215 7.790649,4.194702c2.031128,1.098877 4.069519,2.204956 6.102051,3.30896c2.012817,1.093323 3.991211,2.169617 5.921997,3.218994c3.661072,1.989807 5.367065,2.916687 6.994629,3.794678c1.555847,0.839294 3.051453,1.64093 4.5,2.403015c1.404846,0.739136 2.779297,1.453369 4.140015,2.132996c2.685425,1.341248 4.046265,1.975037 5.41333,2.608032c1.372986,0.635742 2.759155,1.260498 4.155029,1.883972c1.404114,0.627136 2.820618,1.251282 4.244995,1.883972c2.881287,1.279846 4.335266,1.936401 5.798645,2.600037c1.47229,0.667664 2.950256,1.342285 4.435486,2.015991c1.489441,0.675659 2.981628,1.35199 4.48053,2.015991c2.994568,1.326599 4.497253,1.966614 6.001343,2.598694c1.504578,0.632263 3.01709,1.253174 4.539001,1.864502c1.528748,0.614075 3.070618,1.221558 4.628967,1.819458c3.15863,1.211975 4.771362,1.803955 6.400024,2.401367c1.6427,0.6026 3.300781,1.201599 4.971008,1.799988c1.679077,0.601563 3.367065,1.200806 5.060974,1.799988c3.39679,1.201538 5.096069,1.800293 6.789368,2.395996c1.680725,0.591309 3.343262,1.174072 4.982971,1.741516c1.608276,0.55658 3.180054,1.096802 4.713013,1.606506c2.908325,0.967041 4.280884,1.394836 5.59198,1.798645c1.248962,0.384644 2.439697,0.739807 3.570007,1.074036c1.069702,0.316345 2.080994,0.609314 3.030029,0.893982c1.721802,0.516541 2.491394,0.764771 3.203979,1.001343c0.660339,0.219238 1.268127,0.430359 1.828491,0.625488c0.515625,0.179504 0.987366,0.348694 1.423523,0.490479c0.761169,0.247437 1.098145,0.334229 1.406616,0.401367c0.280396,0.061035 0.538208,0.102661 0.774048,0.128967c0.214966,0.023987 0.412598,0.035095 0.593994,0.039001c0.322571,0.006958 0.467957,0.002686 0.605347,0.002686c0.131287,0 0.258667,0 0.383972,0c0.125305,0 0.252686,0 0.383972,0c0.282715,0 0.437378,0 0.600037,0c0.16864,0 0.341309,0 0.515991,0c0.174683,0 0.347351,0 0.515991,0c0.317322,0 0.462524,0 0.598694,0c0.128174,0 0.249329,0 0.364502,0l0.110168,0l0.10614,0l0.103149,0" fill="none" id="svg_46" stroke="#ff6858" stroke-dasharray="null" stroke-linecap="round" stroke-linejoin="null" stroke-width="0"/>
 </g>
</svg>