<?xml version="1.0"?>
<svg width="1600" height="500" xmlns="http://www.w3.org/2000/svg" xmlns:svg="http://www.w3.org/2000/svg">
 <!-- Created with SVG-edit - https://github.com/SVG-Edit/svgedit-->

 <g class="layer">
  <title>Layer 1</title>
  <path d="m-6.5,487.5c45,-63 81,-128 130,-133c49,-5 41,103 102,104c61,1 125,-159 209,-157c84,2 73,113 134,114c61,1 89,-126 153,-138c64,-12 69,109 133,106c64,-3 102,-143 178,-147c76,-4 74,163 131,165c57,2 81,-67 151,-69c70,-2 70,119 126,118c56,-1 113,-99 166,-95c53,4 43,183 42,182c-1,-1 -271,63 -272,62c-1,-1 -380,-1 -381,-2c-1,-1 -330,-14 -330.5,-14.5c-0.5,-0.5 -586.5,-4.5 -586.5,-4.5c0,0 -123,-51 -123,-52c0,-1 38,-39 38,-39z" fill="#28292e" id="svg_10" stroke="#28292e" stroke-dasharray="null" stroke-linecap="round" stroke-linejoin="null" stroke-width="5"/>
 </g>
</svg>