<?xml version="1.0"?>
<svg width="1600" height="500" xmlns="http://www.w3.org/2000/svg" xmlns:svg="http://www.w3.org/2000/svg">
 <!-- Created with SVG-edit - https://github.com/SVG-Edit/svgedit-->
 <g class="layer">
  <title>Layer 1</title>
  <path d="m-40.5,502.359903c45,-27.082524 81,-55.02481 130,-57.174216c49,-2.149407 41,44.277777 102,44.707658c61,0.429881 125,-68.351131 209,-67.491368c84,0.859763 73,48.57659 134,49.006471c61,0.429881 89,-54.165047 153,-59.323623c64,-5.158576 69,46.857065 133,45.567421c64,-1.289644 102,-61.47303 178,-63.192555c76,-1.719525 74,70.070656 131,70.930419c57,0.859763 81,-28.802049 151,-29.661812c70,-0.859763 70,51.155878 126,50.725997c56,-0.429881 113,-42.558251 166,-40.838726c53,1.719525 43,78.668283 42,78.238402c-1,-0.429881 -271,27.082524 -272,26.652642c-1,-0.429881 -380,-0.429881 -381,-0.859763c-1,-0.429881 -330,-6.018339 -330.5,-6.233279c-0.5,-0.214941 -586.5,-1.934466 -586.5,-1.934466c0,0 -123,-21.923948 -123,-22.353829c0,-0.429881 38,-16.765372 38,-16.765372z" fill="#28292e" id="svg_10" stroke="#28292e" stroke-dasharray="null" stroke-linecap="round" stroke-linejoin="null" stroke-width="5"/>
 </g>
</svg>