<svg xmlns="http://www.w3.org/2000/svg" xmlns:svg="http://www.w3.org/2000/svg" width="900" height="200" id="svgcontent" overflow="visible" x="900" y="343.5" viewBox="0 0 900 200" xmlns:se="http://svg-edit.googlecode.com" xmlns:xlink="http://www.w3.org/1999/xlink"><!-- Created with SVG-edit - http://svg-edit.googlecode.com/ --><g style="pointer-events:all"><title style="pointer-events:inherit">Layer 1</title><path fill="#ffffff" stroke-width="0" stroke-dasharray="null" stroke-linejoin="null" stroke-linecap="null" d="M-12,82.24744852887433 C0,97.03428713316501 61,76.79966588518829 94,69.79537391473481 C127,62.79108194428133 154,66.68235526119993 175,86.13872184579293 C196,105.59508843038593 230,100.92556045008361 251,65.12584593443249 C272,29.326131418781376 298,44.89122468645577 329,59.67806329074645 C360,74.46490189503713 368,83.80395785564177 458,43.33471535968833 C548,2.8654728637348974 596,24.656603438479053 621,40.22169670615345 C646,55.78678997382785 674,72.13013790488597 713,55.00853531044413 C752,37.88693271600229 781,74.46490189503713 810,79.91268453872317 C839,85.36046718240921 853,58.12155396397901 901,69.01711925135109 C949,79.91268453872317 927,-51.6123535731255 904,-53.874156188584436 C881,-56.13595880404337 344,-78.07301212817198 344,-78.00005075347975 C344,-77.92708937878753 -39,-64.84268285064874 -39,-64.76972147595652 C-39,-64.69676010126429 -54,-11.921365740555782 -54,-11.848404365863558 C-54,-11.775442991171335 -24,67.46060992458365 -12,82.24744852887433 z" id="svg_5" stroke="#000000"></path></g></svg>