<?xml version="1.0"?>
<svg width="1500" height="300" xmlns="http://www.w3.org/2000/svg" xmlns:svg="http://www.w3.org/2000/svg">
 <!-- Created with SVG-edit - https://github.com/SVG-Edit/svgedit-->

 <g class="layer">
  <title>Layer 1</title>
  <path d="m-136.5,5.5c79,1 73,134 145,135c72,1 61,-107 110,-109c49,-2 31,44 61,44c30,0 41,-52 62,-53c21,-1 31,18 70,18c39,0 110,-22 150,-23c40,-1 93,36 213,34c120,-2 169,-32 239,-32c70,0 118,23 164,22c46,-1 122,-23 151,-25c29,-2 60,50 113,50c53,0 59,-27 90,-30c31,-3 25,80 90,79c65,-1 82,-188 81.5,-187.5c-0.5,0.5 -298.5,-42.5 -299,-42c-0.5,0.5 -445.5,-0.5 -446,0c-0.5,0.5 -441.5,-5.5 -442,-5c-0.5,0.5 -265.5,-0.5 -266,0c-0.5,0.5 -194.5,18.5 -194,19c0.5,0.5 -78.5,40.5 -78,41c0.5,0.5 -14.5,64.5 -14.5,64.5z" fill="#3a416f" id="svg_2" stroke="#ff6858" stroke-dasharray="null" stroke-linecap="round" stroke-linejoin="null" stroke-width="0"/>
  <ellipse cx="112.5" cy="121.5" fill="#3a416f" id="svg_3" rx="8" ry="8" stroke="#ff6858" stroke-dasharray="null" stroke-linecap="round" stroke-linejoin="null" stroke-width="0"/>
  <ellipse cx="365.5" cy="96.5" fill="#3a416f" id="svg_4" rx="9" ry="9" stroke="#ff6858" stroke-dasharray="null" stroke-linecap="round" stroke-linejoin="null" stroke-width="0"/>
  <ellipse cx="657.5" cy="82.5" fill="#3a416f" id="svg_5" rx="11" ry="11" stroke="#ff6858" stroke-dasharray="null" stroke-linecap="round" stroke-linejoin="null" stroke-width="0"/>
  <ellipse cx="1011.5" cy="78.5" fill="#3a416f" id="svg_6" rx="14" ry="14" stroke="#ff6858" stroke-dasharray="null" stroke-linecap="round" stroke-linejoin="null" stroke-width="0"/>
  <ellipse cx="899.5" cy="46.5" fill="#3a416f" id="svg_7" rx="5" ry="5" stroke="#ff6858" stroke-dasharray="null" stroke-linecap="round" stroke-linejoin="null" stroke-width="0"/>
  <ellipse cx="232.5" cy="129.5" fill="#3a416f" id="svg_8" rx="6" ry="6" stroke="#ff6858" stroke-dasharray="null" stroke-linecap="round" stroke-linejoin="null" stroke-width="0"/>
  <ellipse cx="34.5" cy="171.5" fill="#3a416f" id="svg_9" rx="7" ry="7" stroke="#ff6858" stroke-dasharray="null" stroke-linecap="round" stroke-linejoin="null" stroke-width="0"/>
  <ellipse cx="127.5" cy="54.5" fill="#3a416f" id="svg_10" rx="4" ry="4" stroke="#ff6858" stroke-dasharray="null" stroke-linecap="round" stroke-linejoin="null" stroke-width="0"/>
  <ellipse cx="252.5" cy="55.5" fill="#3a416f" id="svg_11" rx="9" ry="9" stroke="#ff6858" stroke-dasharray="null" stroke-linecap="round" stroke-linejoin="null" stroke-width="0"/>
  <ellipse cx="1229.5" cy="50.5" fill="#3a416f" id="svg_12" rx="4" ry="4" stroke="#ff6858" stroke-dasharray="null" stroke-linecap="round" stroke-linejoin="null" stroke-width="0"/>
  <ellipse cx="1302.5" cy="80.5" fill="#3a416f" id="svg_13" rx="14" ry="14" stroke="#ff6858" stroke-dasharray="null" stroke-linecap="round" stroke-linejoin="null" stroke-width="0"/>
  <ellipse cx="1414.5" cy="67.5" fill="#3a416f" id="svg_14" rx="6" ry="6" stroke="#ff6858" stroke-dasharray="null" stroke-linecap="round" stroke-linejoin="null" stroke-width="0"/>
  <ellipse cx="1133.5" cy="69.5" fill="#3a416f" id="svg_15" rx="11" ry="11" stroke="#ff6858" stroke-dasharray="null" stroke-linecap="round" stroke-linejoin="null" stroke-width="0"/>
  <ellipse cx="1450.5" cy="112.5" fill="#3a416f" id="svg_16" rx="6" ry="6" stroke="#ff6858" stroke-dasharray="null" stroke-linecap="round" stroke-linejoin="null" stroke-width="0"/>
  <ellipse cx="776.5" cy="87.5" fill="#3a416f" id="svg_17" rx="8" ry="8" stroke="#ff6858" stroke-dasharray="null" stroke-linecap="round" stroke-linejoin="null" stroke-width="0"/>
  <ellipse cx="479.5" cy="59.5" fill="#3a416f" id="svg_18" rx="14" ry="14" stroke="#ff6858" stroke-dasharray="null" stroke-linecap="round" stroke-linejoin="null" stroke-width="0"/>
 </g>
</svg>